<mxfile host="app.diagrams.net" modified="2023-09-30T20:44:20.851Z" agent="Mozilla/5.0 (Windows NT 10.0; Win64; x64) AppleWebKit/537.36 (KHTML, like Gecko) Chrome/116.0.0.0 Safari/537.36 OPR/102.0.0.0" etag="b0KG3pUfeM01QDcY5yeK" version="22.0.0" type="device">
  <diagram name="PÃ¡gina-1" id="qUJAuB5u2DQlwy7RO2XK">
    <mxGraphModel dx="2178" dy="589" grid="0" gridSize="10" guides="1" tooltips="1" connect="1" arrows="1" fold="1" page="1" pageScale="1" pageWidth="1169" pageHeight="827" background="#FFFFFF" math="0" shadow="0">
      <root>
        <mxCell id="0" />
        <mxCell id="1" parent="0" />
        <mxCell id="pwSW1z1B1ab_S6zezNpx-1" value="USUARIO" style="whiteSpace=wrap;html=1;align=center;fillColor=#60a917;strokeColor=#2D7600;fontColor=#ffffff;" parent="1" vertex="1">
          <mxGeometry x="452" y="124" width="100" height="40" as="geometry" />
        </mxCell>
        <mxCell id="pwSW1z1B1ab_S6zezNpx-3" value="PLANTA" style="whiteSpace=wrap;html=1;align=center;fillColor=#60a917;strokeColor=#2D7600;fontColor=#ffffff;" parent="1" vertex="1">
          <mxGeometry x="548" y="439" width="100" height="40" as="geometry" />
        </mxCell>
        <mxCell id="pwSW1z1B1ab_S6zezNpx-5" value="PRODUTO" style="whiteSpace=wrap;html=1;align=center;fillColor=#60a917;strokeColor=#2D7600;fontColor=#ffffff;" parent="1" vertex="1">
          <mxGeometry x="170" y="571" width="100" height="40" as="geometry" />
        </mxCell>
        <mxCell id="pwSW1z1B1ab_S6zezNpx-14" value="Possui" style="shape=rhombus;perimeter=rhombusPerimeter;whiteSpace=wrap;html=1;align=center;rotation=75;fillColor=#eeeeee;strokeColor=#36393d;" parent="1" vertex="1">
          <mxGeometry x="511" y="268" width="54" height="43" as="geometry" />
        </mxCell>
        <mxCell id="pwSW1z1B1ab_S6zezNpx-20" value="" style="endArrow=none;html=1;rounded=0;exitX=1;exitY=0.5;exitDx=0;exitDy=0;entryX=0;entryY=0.75;entryDx=0;entryDy=0;" parent="1" source="F86QCE3sWGcJdt90cu6Y-1" target="pwSW1z1B1ab_S6zezNpx-3" edge="1">
          <mxGeometry relative="1" as="geometry">
            <mxPoint x="398.9807621135333" y="498" as="sourcePoint" />
            <mxPoint x="540" y="300" as="targetPoint" />
          </mxGeometry>
        </mxCell>
        <mxCell id="pwSW1z1B1ab_S6zezNpx-21" value="" style="endArrow=none;html=1;rounded=0;exitX=0.5;exitY=0;exitDx=0;exitDy=0;entryX=0;entryY=0.5;entryDx=0;entryDy=0;" parent="1" source="pwSW1z1B1ab_S6zezNpx-5" target="F86QCE3sWGcJdt90cu6Y-1" edge="1">
          <mxGeometry relative="1" as="geometry">
            <mxPoint x="230" y="470" as="sourcePoint" />
            <mxPoint x="347.0192378864672" y="528" as="targetPoint" />
          </mxGeometry>
        </mxCell>
        <mxCell id="pwSW1z1B1ab_S6zezNpx-26" value="" style="endArrow=none;html=1;rounded=0;exitX=1;exitY=0.5;exitDx=0;exitDy=0;entryX=0.5;entryY=0;entryDx=0;entryDy=0;" parent="1" source="pwSW1z1B1ab_S6zezNpx-14" target="pwSW1z1B1ab_S6zezNpx-3" edge="1">
          <mxGeometry relative="1" as="geometry">
            <mxPoint x="490" y="350" as="sourcePoint" />
            <mxPoint x="470" y="200" as="targetPoint" />
          </mxGeometry>
        </mxCell>
        <mxCell id="pwSW1z1B1ab_S6zezNpx-27" value="" style="endArrow=none;html=1;rounded=0;exitX=0.5;exitY=1;exitDx=0;exitDy=0;entryX=0;entryY=0.5;entryDx=0;entryDy=0;" parent="1" source="pwSW1z1B1ab_S6zezNpx-1" target="pwSW1z1B1ab_S6zezNpx-14" edge="1">
          <mxGeometry relative="1" as="geometry">
            <mxPoint x="500" y="360" as="sourcePoint" />
            <mxPoint x="500" y="420" as="targetPoint" />
          </mxGeometry>
        </mxCell>
        <mxCell id="pwSW1z1B1ab_S6zezNpx-41" value="(0,N)" style="text;html=1;strokeColor=none;fillColor=none;align=center;verticalAlign=middle;whiteSpace=wrap;rounded=0;rotation=-15;" parent="1" vertex="1">
          <mxGeometry x="266" y="511" width="60" height="30" as="geometry" />
        </mxCell>
        <mxCell id="pwSW1z1B1ab_S6zezNpx-42" value="(0,M)" style="text;html=1;strokeColor=none;fillColor=none;align=center;verticalAlign=middle;whiteSpace=wrap;rounded=0;rotation=-15;" parent="1" vertex="1">
          <mxGeometry x="417" y="468" width="60" height="30" as="geometry" />
        </mxCell>
        <mxCell id="pwSW1z1B1ab_S6zezNpx-43" value="frequencia" style="ellipse;whiteSpace=wrap;html=1;align=center;fillColor=#d5e8d4;strokeColor=#82b366;" parent="1" vertex="1">
          <mxGeometry x="406" y="551" width="74" height="34" as="geometry" />
        </mxCell>
        <mxCell id="pwSW1z1B1ab_S6zezNpx-45" value="" style="endArrow=none;html=1;rounded=0;entryX=0;entryY=0.5;entryDx=0;entryDy=0;" parent="1" source="F86QCE3sWGcJdt90cu6Y-1" target="pwSW1z1B1ab_S6zezNpx-43" edge="1">
          <mxGeometry relative="1" as="geometry">
            <mxPoint x="382" y="504" as="sourcePoint" />
            <mxPoint x="542" y="504" as="targetPoint" />
          </mxGeometry>
        </mxCell>
        <mxCell id="pwSW1z1B1ab_S6zezNpx-47" value="prodid" style="ellipse;whiteSpace=wrap;html=1;align=center;fontStyle=4;fillColor=#d5e8d4;strokeColor=#82b366;" parent="1" vertex="1">
          <mxGeometry x="28" y="700" width="81" height="38" as="geometry" />
        </mxCell>
        <mxCell id="pwSW1z1B1ab_S6zezNpx-48" value="tipo" style="ellipse;whiteSpace=wrap;html=1;align=center;fillColor=#d5e8d4;strokeColor=#82b366;" parent="1" vertex="1">
          <mxGeometry x="-16" y="615" width="94" height="36" as="geometry" />
        </mxCell>
        <mxCell id="pwSW1z1B1ab_S6zezNpx-50" value="nome" style="ellipse;whiteSpace=wrap;html=1;align=center;fillColor=#d5e8d4;strokeColor=#82b366;" parent="1" vertex="1">
          <mxGeometry x="150" y="747" width="94" height="36" as="geometry" />
        </mxCell>
        <mxCell id="pwSW1z1B1ab_S6zezNpx-51" value="funcao" style="ellipse;whiteSpace=wrap;html=1;align=center;fillColor=#d5e8d4;strokeColor=#82b366;" parent="1" vertex="1">
          <mxGeometry x="260" y="681" width="94" height="36" as="geometry" />
        </mxCell>
        <mxCell id="pwSW1z1B1ab_S6zezNpx-55" value="userid" style="ellipse;whiteSpace=wrap;html=1;align=center;fontStyle=4;fillColor=#d5e8d4;strokeColor=#82b366;" parent="1" vertex="1">
          <mxGeometry x="594" y="66" width="81" height="38" as="geometry" />
        </mxCell>
        <mxCell id="pwSW1z1B1ab_S6zezNpx-56" value="login" style="ellipse;whiteSpace=wrap;html=1;align=center;fillColor=#d5e8d4;strokeColor=#82b366;" parent="1" vertex="1">
          <mxGeometry x="427" y="30" width="94" height="36" as="geometry" />
        </mxCell>
        <mxCell id="pwSW1z1B1ab_S6zezNpx-57" value="email" style="ellipse;whiteSpace=wrap;html=1;align=center;fillColor=#d5e8d4;strokeColor=#82b366;" parent="1" vertex="1">
          <mxGeometry x="288" y="103" width="94" height="36" as="geometry" />
        </mxCell>
        <mxCell id="pwSW1z1B1ab_S6zezNpx-58" value="senha" style="ellipse;whiteSpace=wrap;html=1;align=center;fillColor=#d5e8d4;strokeColor=#82b366;" parent="1" vertex="1">
          <mxGeometry x="597" y="128" width="94" height="36" as="geometry" />
        </mxCell>
        <mxCell id="pwSW1z1B1ab_S6zezNpx-60" value="slug" style="ellipse;whiteSpace=wrap;html=1;align=center;fontStyle=4;fillColor=#d5e8d4;strokeColor=#82b366;" parent="1" vertex="1">
          <mxGeometry x="830" y="248" width="81" height="38" as="geometry" />
        </mxCell>
        <mxCell id="pwSW1z1B1ab_S6zezNpx-63" value="nomecien" style="ellipse;whiteSpace=wrap;html=1;align=center;fillColor=#d5e8d4;strokeColor=#82b366;" parent="1" vertex="1">
          <mxGeometry x="868" y="422" width="94" height="36" as="geometry" />
        </mxCell>
        <mxCell id="pwSW1z1B1ab_S6zezNpx-65" value="privativo" style="ellipse;whiteSpace=wrap;html=1;align=center;fillColor=#d5e8d4;strokeColor=#82b366;" parent="1" vertex="1">
          <mxGeometry x="223" y="346" width="74" height="34" as="geometry" />
        </mxCell>
        <mxCell id="pwSW1z1B1ab_S6zezNpx-69" value="" style="endArrow=none;html=1;rounded=0;entryX=1;entryY=0.5;entryDx=0;entryDy=0;" parent="1" target="pwSW1z1B1ab_S6zezNpx-65" edge="1" source="pwSW1z1B1ab_S6zezNpx-14">
          <mxGeometry relative="1" as="geometry">
            <mxPoint x="170" y="420" as="sourcePoint" />
            <mxPoint x="250" y="420" as="targetPoint" />
          </mxGeometry>
        </mxCell>
        <mxCell id="pwSW1z1B1ab_S6zezNpx-70" value="" style="endArrow=none;html=1;rounded=0;exitX=0;exitY=0.5;exitDx=0;exitDy=0;entryX=1;entryY=0.5;entryDx=0;entryDy=0;" parent="1" source="pwSW1z1B1ab_S6zezNpx-5" target="pwSW1z1B1ab_S6zezNpx-48" edge="1">
          <mxGeometry relative="1" as="geometry">
            <mxPoint x="336" y="363" as="sourcePoint" />
            <mxPoint x="260" y="430" as="targetPoint" />
          </mxGeometry>
        </mxCell>
        <mxCell id="pwSW1z1B1ab_S6zezNpx-71" value="" style="endArrow=none;html=1;rounded=0;" parent="1" source="pwSW1z1B1ab_S6zezNpx-5" target="pwSW1z1B1ab_S6zezNpx-47" edge="1">
          <mxGeometry relative="1" as="geometry">
            <mxPoint x="346" y="373" as="sourcePoint" />
            <mxPoint x="270" y="440" as="targetPoint" />
          </mxGeometry>
        </mxCell>
        <mxCell id="pwSW1z1B1ab_S6zezNpx-72" value="" style="endArrow=none;html=1;rounded=0;exitX=0.5;exitY=1;exitDx=0;exitDy=0;entryX=0.5;entryY=0;entryDx=0;entryDy=0;" parent="1" source="pwSW1z1B1ab_S6zezNpx-5" target="pwSW1z1B1ab_S6zezNpx-50" edge="1">
          <mxGeometry relative="1" as="geometry">
            <mxPoint x="356" y="383" as="sourcePoint" />
            <mxPoint x="280" y="450" as="targetPoint" />
          </mxGeometry>
        </mxCell>
        <mxCell id="pwSW1z1B1ab_S6zezNpx-73" value="" style="endArrow=none;html=1;rounded=0;exitX=0.75;exitY=1;exitDx=0;exitDy=0;entryX=0;entryY=0;entryDx=0;entryDy=0;" parent="1" source="pwSW1z1B1ab_S6zezNpx-5" target="pwSW1z1B1ab_S6zezNpx-51" edge="1">
          <mxGeometry relative="1" as="geometry">
            <mxPoint x="366" y="393" as="sourcePoint" />
            <mxPoint x="290" y="460" as="targetPoint" />
          </mxGeometry>
        </mxCell>
        <mxCell id="pwSW1z1B1ab_S6zezNpx-75" value="" style="endArrow=none;html=1;rounded=0;entryX=0;entryY=0.5;entryDx=0;entryDy=0;" parent="1" source="pwSW1z1B1ab_S6zezNpx-3" target="pwSW1z1B1ab_S6zezNpx-63" edge="1">
          <mxGeometry relative="1" as="geometry">
            <mxPoint x="386" y="413" as="sourcePoint" />
            <mxPoint x="310" y="480" as="targetPoint" />
          </mxGeometry>
        </mxCell>
        <mxCell id="pwSW1z1B1ab_S6zezNpx-76" value="" style="endArrow=none;html=1;rounded=0;exitX=1;exitY=0.25;exitDx=0;exitDy=0;entryX=0;entryY=0.5;entryDx=0;entryDy=0;" parent="1" source="pwSW1z1B1ab_S6zezNpx-3" target="AaDPseL6QaGRRg2nZz0t-22" edge="1">
          <mxGeometry relative="1" as="geometry">
            <mxPoint x="522" y="399" as="sourcePoint" />
            <mxPoint x="912.9070603741134" y="370.05418730572785" as="targetPoint" />
          </mxGeometry>
        </mxCell>
        <mxCell id="pwSW1z1B1ab_S6zezNpx-77" value="" style="endArrow=none;html=1;rounded=0;exitX=0.5;exitY=1;exitDx=0;exitDy=0;entryX=0.86;entryY=0;entryDx=0;entryDy=0;entryPerimeter=0;" parent="1" source="pwSW1z1B1ab_S6zezNpx-60" target="pwSW1z1B1ab_S6zezNpx-3" edge="1">
          <mxGeometry relative="1" as="geometry">
            <mxPoint x="406" y="433" as="sourcePoint" />
            <mxPoint x="330" y="500" as="targetPoint" />
          </mxGeometry>
        </mxCell>
        <mxCell id="pwSW1z1B1ab_S6zezNpx-79" value="" style="endArrow=none;html=1;rounded=0;exitX=0;exitY=0.5;exitDx=0;exitDy=0;entryX=1;entryY=0.75;entryDx=0;entryDy=0;" parent="1" source="pwSW1z1B1ab_S6zezNpx-58" target="pwSW1z1B1ab_S6zezNpx-1" edge="1">
          <mxGeometry relative="1" as="geometry">
            <mxPoint x="606" y="330" as="sourcePoint" />
            <mxPoint x="562" y="331" as="targetPoint" />
          </mxGeometry>
        </mxCell>
        <mxCell id="pwSW1z1B1ab_S6zezNpx-80" value="" style="endArrow=none;html=1;rounded=0;exitX=0;exitY=0.5;exitDx=0;exitDy=0;entryX=1;entryY=0.25;entryDx=0;entryDy=0;" parent="1" source="pwSW1z1B1ab_S6zezNpx-55" target="pwSW1z1B1ab_S6zezNpx-1" edge="1">
          <mxGeometry relative="1" as="geometry">
            <mxPoint x="616" y="340" as="sourcePoint" />
            <mxPoint x="572" y="341" as="targetPoint" />
          </mxGeometry>
        </mxCell>
        <mxCell id="pwSW1z1B1ab_S6zezNpx-81" value="" style="endArrow=none;html=1;rounded=0;entryX=1;entryY=0.5;entryDx=0;entryDy=0;" parent="1" target="pwSW1z1B1ab_S6zezNpx-57" edge="1">
          <mxGeometry relative="1" as="geometry">
            <mxPoint x="451" y="147" as="sourcePoint" />
            <mxPoint x="582" y="351" as="targetPoint" />
          </mxGeometry>
        </mxCell>
        <mxCell id="pwSW1z1B1ab_S6zezNpx-82" value="" style="endArrow=none;html=1;rounded=0;exitX=0.322;exitY=0.015;exitDx=0;exitDy=0;entryX=0.574;entryY=0.956;entryDx=0;entryDy=0;exitPerimeter=0;entryPerimeter=0;" parent="1" source="pwSW1z1B1ab_S6zezNpx-1" target="pwSW1z1B1ab_S6zezNpx-56" edge="1">
          <mxGeometry relative="1" as="geometry">
            <mxPoint x="636" y="360" as="sourcePoint" />
            <mxPoint x="592" y="361" as="targetPoint" />
          </mxGeometry>
        </mxCell>
        <mxCell id="AaDPseL6QaGRRg2nZz0t-1" value="imagem_url" style="ellipse;whiteSpace=wrap;html=1;align=center;fillColor=#d5e8d4;strokeColor=#82b366;" parent="1" vertex="1">
          <mxGeometry x="740" y="502" width="94" height="36" as="geometry" />
        </mxCell>
        <mxCell id="AaDPseL6QaGRRg2nZz0t-2" style="edgeStyle=orthogonalEdgeStyle;rounded=0;orthogonalLoop=1;jettySize=auto;html=1;exitX=0.5;exitY=1;exitDx=0;exitDy=0;" parent="1" source="AaDPseL6QaGRRg2nZz0t-1" target="AaDPseL6QaGRRg2nZz0t-1" edge="1">
          <mxGeometry relative="1" as="geometry" />
        </mxCell>
        <mxCell id="AaDPseL6QaGRRg2nZz0t-3" value="" style="endArrow=none;html=1;rounded=0;exitX=0.9;exitY=0.965;exitDx=0;exitDy=0;exitPerimeter=0;entryX=0;entryY=0;entryDx=0;entryDy=0;" parent="1" source="pwSW1z1B1ab_S6zezNpx-3" target="AaDPseL6QaGRRg2nZz0t-1" edge="1">
          <mxGeometry relative="1" as="geometry">
            <mxPoint x="509" y="435" as="sourcePoint" />
            <mxPoint x="564" y="533" as="targetPoint" />
          </mxGeometry>
        </mxCell>
        <mxCell id="AaDPseL6QaGRRg2nZz0t-4" value="crescimento" style="ellipse;whiteSpace=wrap;html=1;align=center;fillColor=#d5e8d4;strokeColor=#82b366;" parent="1" vertex="1">
          <mxGeometry x="722" y="601" width="94" height="36" as="geometry" />
        </mxCell>
        <mxCell id="AaDPseL6QaGRRg2nZz0t-5" value="" style="endArrow=none;html=1;rounded=0;exitX=0.75;exitY=1;exitDx=0;exitDy=0;entryX=0.5;entryY=0;entryDx=0;entryDy=0;" parent="1" source="pwSW1z1B1ab_S6zezNpx-3" target="AaDPseL6QaGRRg2nZz0t-4" edge="1">
          <mxGeometry relative="1" as="geometry">
            <mxPoint x="520" y="439" as="sourcePoint" />
            <mxPoint x="620" y="526" as="targetPoint" />
          </mxGeometry>
        </mxCell>
        <mxCell id="AaDPseL6QaGRRg2nZz0t-7" value="nome" style="ellipse;whiteSpace=wrap;html=1;align=center;fillColor=#d5e8d4;strokeColor=#82b366;" parent="1" vertex="1">
          <mxGeometry x="294" y="401" width="74" height="34" as="geometry" />
        </mxCell>
        <mxCell id="AaDPseL6QaGRRg2nZz0t-8" value="" style="endArrow=none;html=1;rounded=0;exitX=1;exitY=1;exitDx=0;exitDy=0;entryX=0.989;entryY=0.306;entryDx=0;entryDy=0;entryPerimeter=0;" parent="1" target="AaDPseL6QaGRRg2nZz0t-7" edge="1" source="pwSW1z1B1ab_S6zezNpx-14">
          <mxGeometry relative="1" as="geometry">
            <mxPoint x="170" y="430" as="sourcePoint" />
            <mxPoint x="141" y="435" as="targetPoint" />
          </mxGeometry>
        </mxCell>
        <mxCell id="AaDPseL6QaGRRg2nZz0t-10" value="padroes" style="ellipse;whiteSpace=wrap;html=1;align=center;fillColor=#d5e8d4;strokeColor=#82b366;" parent="1" vertex="1">
          <mxGeometry x="299" y="265" width="74" height="34" as="geometry" />
        </mxCell>
        <mxCell id="AaDPseL6QaGRRg2nZz0t-12" value="" style="endArrow=none;html=1;rounded=0;exitX=0;exitY=1;exitDx=0;exitDy=0;entryX=1;entryY=0.5;entryDx=0;entryDy=0;" parent="1" target="AaDPseL6QaGRRg2nZz0t-10" edge="1" source="pwSW1z1B1ab_S6zezNpx-14">
          <mxGeometry relative="1" as="geometry">
            <mxPoint x="170" y="400" as="sourcePoint" />
            <mxPoint x="98" y="449" as="targetPoint" />
          </mxGeometry>
        </mxCell>
        <mxCell id="AaDPseL6QaGRRg2nZz0t-13" value="rega" style="ellipse;whiteSpace=wrap;html=1;align=center;fillColor=#d5e8d4;strokeColor=#82b366;" parent="1" vertex="1">
          <mxGeometry x="225" y="217" width="74" height="34" as="geometry" />
        </mxCell>
        <mxCell id="AaDPseL6QaGRRg2nZz0t-14" value="exposicao" style="ellipse;whiteSpace=wrap;html=1;align=center;fillColor=#d5e8d4;strokeColor=#82b366;" parent="1" vertex="1">
          <mxGeometry x="172" y="248" width="74" height="34" as="geometry" />
        </mxCell>
        <mxCell id="AaDPseL6QaGRRg2nZz0t-16" value="poda" style="ellipse;whiteSpace=wrap;html=1;align=center;fillColor=#d5e8d4;strokeColor=#82b366;" parent="1" vertex="1">
          <mxGeometry x="182" y="299" width="74" height="34" as="geometry" />
        </mxCell>
        <mxCell id="AaDPseL6QaGRRg2nZz0t-17" value="" style="endArrow=none;html=1;rounded=0;entryX=1;entryY=0.5;entryDx=0;entryDy=0;exitX=0;exitY=0.5;exitDx=0;exitDy=0;" parent="1" source="AaDPseL6QaGRRg2nZz0t-10" target="AaDPseL6QaGRRg2nZz0t-16" edge="1">
          <mxGeometry relative="1" as="geometry">
            <mxPoint x="408" y="335" as="sourcePoint" />
            <mxPoint x="363" y="306" as="targetPoint" />
          </mxGeometry>
        </mxCell>
        <mxCell id="AaDPseL6QaGRRg2nZz0t-18" value="" style="endArrow=none;html=1;rounded=0;entryX=1;entryY=0.5;entryDx=0;entryDy=0;exitX=0;exitY=0;exitDx=0;exitDy=0;" parent="1" source="AaDPseL6QaGRRg2nZz0t-10" target="AaDPseL6QaGRRg2nZz0t-14" edge="1">
          <mxGeometry relative="1" as="geometry">
            <mxPoint x="295" y="289" as="sourcePoint" />
            <mxPoint x="373" y="316" as="targetPoint" />
          </mxGeometry>
        </mxCell>
        <mxCell id="AaDPseL6QaGRRg2nZz0t-19" value="" style="endArrow=none;html=1;rounded=0;entryX=1;entryY=0.5;entryDx=0;entryDy=0;exitX=0.289;exitY=0.106;exitDx=0;exitDy=0;exitPerimeter=0;" parent="1" source="AaDPseL6QaGRRg2nZz0t-10" target="AaDPseL6QaGRRg2nZz0t-13" edge="1">
          <mxGeometry relative="1" as="geometry">
            <mxPoint x="428" y="355" as="sourcePoint" />
            <mxPoint x="291" y="237" as="targetPoint" />
          </mxGeometry>
        </mxCell>
        <mxCell id="AaDPseL6QaGRRg2nZz0t-22" value="nomes_pop" style="ellipse;shape=doubleEllipse;margin=3;whiteSpace=wrap;html=1;align=center;fillColor=#d5e8d4;strokeColor=#82b366;" parent="1" vertex="1">
          <mxGeometry x="904" y="326" width="100" height="40" as="geometry" />
        </mxCell>
        <mxCell id="AaDPseL6QaGRRg2nZz0t-23" value="taxa" style="ellipse;whiteSpace=wrap;html=1;align=center;fillColor=#d5e8d4;strokeColor=#82b366;" parent="1" vertex="1">
          <mxGeometry x="710" y="675" width="94" height="36" as="geometry" />
        </mxCell>
        <mxCell id="AaDPseL6QaGRRg2nZz0t-24" value="forma" style="ellipse;whiteSpace=wrap;html=1;align=center;fillColor=#d5e8d4;strokeColor=#82b366;" parent="1" vertex="1">
          <mxGeometry x="817" y="645" width="94" height="36" as="geometry" />
        </mxCell>
        <mxCell id="AaDPseL6QaGRRg2nZz0t-25" value="max" style="ellipse;whiteSpace=wrap;html=1;align=center;fillColor=#d5e8d4;strokeColor=#82b366;" parent="1" vertex="1">
          <mxGeometry x="853" y="585" width="94" height="36" as="geometry" />
        </mxCell>
        <mxCell id="AaDPseL6QaGRRg2nZz0t-26" value="" style="endArrow=none;html=1;rounded=0;exitX=0.5;exitY=1;exitDx=0;exitDy=0;entryX=0.5;entryY=0;entryDx=0;entryDy=0;" parent="1" source="AaDPseL6QaGRRg2nZz0t-4" target="AaDPseL6QaGRRg2nZz0t-23" edge="1">
          <mxGeometry relative="1" as="geometry">
            <mxPoint x="633" y="489" as="sourcePoint" />
            <mxPoint x="779" y="611" as="targetPoint" />
          </mxGeometry>
        </mxCell>
        <mxCell id="AaDPseL6QaGRRg2nZz0t-27" value="" style="endArrow=none;html=1;rounded=0;exitX=0.738;exitY=0.944;exitDx=0;exitDy=0;entryX=0;entryY=0.5;entryDx=0;entryDy=0;exitPerimeter=0;" parent="1" source="AaDPseL6QaGRRg2nZz0t-4" target="AaDPseL6QaGRRg2nZz0t-24" edge="1">
          <mxGeometry relative="1" as="geometry">
            <mxPoint x="643" y="499" as="sourcePoint" />
            <mxPoint x="789" y="621" as="targetPoint" />
          </mxGeometry>
        </mxCell>
        <mxCell id="AaDPseL6QaGRRg2nZz0t-28" value="" style="endArrow=none;html=1;rounded=0;exitX=1;exitY=0.5;exitDx=0;exitDy=0;entryX=0.026;entryY=0.7;entryDx=0;entryDy=0;entryPerimeter=0;" parent="1" source="AaDPseL6QaGRRg2nZz0t-4" target="AaDPseL6QaGRRg2nZz0t-25" edge="1">
          <mxGeometry relative="1" as="geometry">
            <mxPoint x="653" y="509" as="sourcePoint" />
            <mxPoint x="799" y="631" as="targetPoint" />
          </mxGeometry>
        </mxCell>
        <mxCell id="AaDPseL6QaGRRg2nZz0t-30" value="fixacao_nitrogenio" style="ellipse;whiteSpace=wrap;html=1;align=center;fillColor=#d5e8d4;strokeColor=#82b366;" parent="1" vertex="1">
          <mxGeometry x="625" y="565" width="94" height="36" as="geometry" />
        </mxCell>
        <mxCell id="AaDPseL6QaGRRg2nZz0t-32" value="" style="endArrow=none;html=1;rounded=0;exitX=0.5;exitY=1;exitDx=0;exitDy=0;entryX=0.5;entryY=0;entryDx=0;entryDy=0;" parent="1" source="pwSW1z1B1ab_S6zezNpx-3" target="AaDPseL6QaGRRg2nZz0t-30" edge="1">
          <mxGeometry relative="1" as="geometry">
            <mxPoint x="633" y="489" as="sourcePoint" />
            <mxPoint x="779" y="611" as="targetPoint" />
          </mxGeometry>
        </mxCell>
        <mxCell id="AaDPseL6QaGRRg2nZz0t-33" value="toxicidade" style="ellipse;whiteSpace=wrap;html=1;align=center;fillColor=#d5e8d4;strokeColor=#82b366;" parent="1" vertex="1">
          <mxGeometry x="645" y="323" width="94" height="36" as="geometry" />
        </mxCell>
        <mxCell id="AaDPseL6QaGRRg2nZz0t-34" value="" style="endArrow=none;html=1;rounded=0;exitX=0.5;exitY=1;exitDx=0;exitDy=0;entryX=0.618;entryY=0.04;entryDx=0;entryDy=0;entryPerimeter=0;" parent="1" source="AaDPseL6QaGRRg2nZz0t-33" target="pwSW1z1B1ab_S6zezNpx-3" edge="1">
          <mxGeometry relative="1" as="geometry">
            <mxPoint x="881" y="296" as="sourcePoint" />
            <mxPoint x="644" y="449" as="targetPoint" />
          </mxGeometry>
        </mxCell>
        <mxCell id="AaDPseL6QaGRRg2nZz0t-35" value="luz solar" style="ellipse;whiteSpace=wrap;html=1;align=center;fillColor=#d5e8d4;strokeColor=#82b366;" parent="1" vertex="1">
          <mxGeometry x="580" y="609" width="94" height="36" as="geometry" />
        </mxCell>
        <mxCell id="AaDPseL6QaGRRg2nZz0t-36" value="" style="endArrow=none;html=1;rounded=0;exitX=0.378;exitY=1;exitDx=0;exitDy=0;exitPerimeter=0;" parent="1" source="pwSW1z1B1ab_S6zezNpx-3" target="AaDPseL6QaGRRg2nZz0t-35" edge="1">
          <mxGeometry relative="1" as="geometry">
            <mxPoint x="608" y="489" as="sourcePoint" />
            <mxPoint x="627" y="641" as="targetPoint" />
          </mxGeometry>
        </mxCell>
        <mxCell id="AaDPseL6QaGRRg2nZz0t-38" value="ph" style="ellipse;whiteSpace=wrap;html=1;align=center;fillColor=#d5e8d4;strokeColor=#82b366;" parent="1" vertex="1">
          <mxGeometry x="721" y="765" width="94" height="36" as="geometry" />
        </mxCell>
        <mxCell id="AaDPseL6QaGRRg2nZz0t-39" value="max" style="ellipse;whiteSpace=wrap;html=1;align=center;fillColor=#d5e8d4;strokeColor=#82b366;" parent="1" vertex="1">
          <mxGeometry x="700" y="841" width="94" height="36" as="geometry" />
        </mxCell>
        <mxCell id="AaDPseL6QaGRRg2nZz0t-40" value="min" style="ellipse;whiteSpace=wrap;html=1;align=center;fillColor=#d5e8d4;strokeColor=#82b366;" parent="1" vertex="1">
          <mxGeometry x="788" y="837" width="94" height="36" as="geometry" />
        </mxCell>
        <mxCell id="AaDPseL6QaGRRg2nZz0t-41" value="solo" style="ellipse;whiteSpace=wrap;html=1;align=center;fillColor=#d5e8d4;strokeColor=#82b366;" parent="1" vertex="1">
          <mxGeometry x="500" y="654" width="94" height="36" as="geometry" />
        </mxCell>
        <mxCell id="AaDPseL6QaGRRg2nZz0t-42" value="nutrientes" style="ellipse;whiteSpace=wrap;html=1;align=center;fillColor=#d5e8d4;strokeColor=#82b366;" parent="1" vertex="1">
          <mxGeometry x="402" y="768" width="94" height="36" as="geometry" />
        </mxCell>
        <mxCell id="AaDPseL6QaGRRg2nZz0t-43" value="salinidade" style="ellipse;whiteSpace=wrap;html=1;align=center;fillColor=#d5e8d4;strokeColor=#82b366;" parent="1" vertex="1">
          <mxGeometry x="612" y="763" width="94" height="36" as="geometry" />
        </mxCell>
        <mxCell id="AaDPseL6QaGRRg2nZz0t-44" value="umidade" style="ellipse;whiteSpace=wrap;html=1;align=center;fillColor=#d5e8d4;strokeColor=#82b366;" parent="1" vertex="1">
          <mxGeometry x="364" y="711" width="94" height="36" as="geometry" />
        </mxCell>
        <mxCell id="AaDPseL6QaGRRg2nZz0t-45" value="textura" style="ellipse;whiteSpace=wrap;html=1;align=center;fillColor=#d5e8d4;strokeColor=#82b366;" parent="1" vertex="1">
          <mxGeometry x="524" y="801" width="94" height="36" as="geometry" />
        </mxCell>
        <mxCell id="AaDPseL6QaGRRg2nZz0t-47" value="" style="endArrow=none;html=1;rounded=0;exitX=0.25;exitY=1;exitDx=0;exitDy=0;entryX=0.5;entryY=0;entryDx=0;entryDy=0;" parent="1" source="pwSW1z1B1ab_S6zezNpx-3" target="AaDPseL6QaGRRg2nZz0t-41" edge="1">
          <mxGeometry relative="1" as="geometry">
            <mxPoint x="596" y="489" as="sourcePoint" />
            <mxPoint x="632" y="619" as="targetPoint" />
          </mxGeometry>
        </mxCell>
        <mxCell id="AaDPseL6QaGRRg2nZz0t-49" value="" style="endArrow=none;html=1;rounded=0;entryX=0;entryY=1;entryDx=0;entryDy=0;" parent="1" source="AaDPseL6QaGRRg2nZz0t-44" target="AaDPseL6QaGRRg2nZz0t-41" edge="1">
          <mxGeometry relative="1" as="geometry">
            <mxPoint x="606" y="499" as="sourcePoint" />
            <mxPoint x="642" y="629" as="targetPoint" />
          </mxGeometry>
        </mxCell>
        <mxCell id="AaDPseL6QaGRRg2nZz0t-50" value="" style="endArrow=none;html=1;rounded=0;exitX=0.5;exitY=1;exitDx=0;exitDy=0;entryX=0.5;entryY=0;entryDx=0;entryDy=0;" parent="1" source="AaDPseL6QaGRRg2nZz0t-41" target="AaDPseL6QaGRRg2nZz0t-43" edge="1">
          <mxGeometry relative="1" as="geometry">
            <mxPoint x="616" y="509" as="sourcePoint" />
            <mxPoint x="652" y="639" as="targetPoint" />
          </mxGeometry>
        </mxCell>
        <mxCell id="AaDPseL6QaGRRg2nZz0t-51" value="" style="endArrow=none;html=1;rounded=0;entryX=0.5;entryY=0;entryDx=0;entryDy=0;" parent="1" source="AaDPseL6QaGRRg2nZz0t-41" target="AaDPseL6QaGRRg2nZz0t-45" edge="1">
          <mxGeometry relative="1" as="geometry">
            <mxPoint x="626" y="519" as="sourcePoint" />
            <mxPoint x="662" y="649" as="targetPoint" />
          </mxGeometry>
        </mxCell>
        <mxCell id="AaDPseL6QaGRRg2nZz0t-52" value="" style="endArrow=none;html=1;rounded=0;entryX=0.753;entryY=0.133;entryDx=0;entryDy=0;entryPerimeter=0;" parent="1" source="AaDPseL6QaGRRg2nZz0t-41" target="AaDPseL6QaGRRg2nZz0t-42" edge="1">
          <mxGeometry relative="1" as="geometry">
            <mxPoint x="499" y="644" as="sourcePoint" />
            <mxPoint x="672" y="659" as="targetPoint" />
          </mxGeometry>
        </mxCell>
        <mxCell id="AaDPseL6QaGRRg2nZz0t-53" value="" style="endArrow=none;html=1;rounded=0;" parent="1" source="AaDPseL6QaGRRg2nZz0t-41" target="AaDPseL6QaGRRg2nZz0t-38" edge="1">
          <mxGeometry relative="1" as="geometry">
            <mxPoint x="646" y="539" as="sourcePoint" />
            <mxPoint x="682" y="669" as="targetPoint" />
          </mxGeometry>
        </mxCell>
        <mxCell id="AaDPseL6QaGRRg2nZz0t-54" value="" style="endArrow=none;html=1;rounded=0;" parent="1" source="AaDPseL6QaGRRg2nZz0t-38" target="AaDPseL6QaGRRg2nZz0t-39" edge="1">
          <mxGeometry relative="1" as="geometry">
            <mxPoint x="757" y="603" as="sourcePoint" />
            <mxPoint x="793" y="733" as="targetPoint" />
          </mxGeometry>
        </mxCell>
        <mxCell id="AaDPseL6QaGRRg2nZz0t-55" value="" style="endArrow=none;html=1;rounded=0;" parent="1" source="AaDPseL6QaGRRg2nZz0t-38" target="AaDPseL6QaGRRg2nZz0t-40" edge="1">
          <mxGeometry relative="1" as="geometry">
            <mxPoint x="767" y="613" as="sourcePoint" />
            <mxPoint x="803" y="743" as="targetPoint" />
          </mxGeometry>
        </mxCell>
        <mxCell id="kO6D4U1uqKqjYWXf5yve-1" value="preco" style="ellipse;whiteSpace=wrap;html=1;align=center;fillColor=#d5e8d4;strokeColor=#82b366;" parent="1" vertex="1">
          <mxGeometry x="326" y="618" width="94" height="36" as="geometry" />
        </mxCell>
        <mxCell id="kO6D4U1uqKqjYWXf5yve-2" value="" style="endArrow=none;html=1;rounded=0;exitX=1;exitY=0.5;exitDx=0;exitDy=0;entryX=0;entryY=0.5;entryDx=0;entryDy=0;" parent="1" source="pwSW1z1B1ab_S6zezNpx-5" target="kO6D4U1uqKqjYWXf5yve-1" edge="1">
          <mxGeometry relative="1" as="geometry">
            <mxPoint x="255" y="621" as="sourcePoint" />
            <mxPoint x="284" y="696" as="targetPoint" />
          </mxGeometry>
        </mxCell>
        <mxCell id="F86QCE3sWGcJdt90cu6Y-1" value="Possui" style="shape=rhombus;perimeter=rhombusPerimeter;whiteSpace=wrap;html=1;align=center;fillColor=#eeeeee;strokeColor=#36393d;rotation=-15;" parent="1" vertex="1">
          <mxGeometry x="346" y="493" width="60" height="40" as="geometry" />
        </mxCell>
        <mxCell id="0QQMV0CcGk5aV4SWYDKJ-5" value="(0,N)" style="text;html=1;strokeColor=none;fillColor=none;align=center;verticalAlign=middle;whiteSpace=wrap;rounded=0;rotation=75;" parent="1" vertex="1">
          <mxGeometry x="495" y="187" width="60" height="30" as="geometry" />
        </mxCell>
        <mxCell id="lMpiFgcVeRlLVFYcbR-g-1" value="(0,N)" style="text;html=1;strokeColor=none;fillColor=none;align=center;verticalAlign=middle;whiteSpace=wrap;rounded=0;rotation=60;" parent="1" vertex="1">
          <mxGeometry x="548" y="354" width="60" height="30" as="geometry" />
        </mxCell>
        <mxCell id="mt36raoS_XpQdLN_D7HC-2" value="nome" style="ellipse;whiteSpace=wrap;html=1;align=center;fillColor=#d5e8d4;strokeColor=#82b366;rotation=-30;" vertex="1" parent="1">
          <mxGeometry x="625" y="202" width="74" height="34" as="geometry" />
        </mxCell>
        <mxCell id="mt36raoS_XpQdLN_D7HC-3" value="" style="endArrow=none;html=1;rounded=0;exitX=0;exitY=0.5;exitDx=0;exitDy=0;entryX=0.5;entryY=0;entryDx=0;entryDy=0;" edge="1" parent="1" source="mt36raoS_XpQdLN_D7HC-2" target="pwSW1z1B1ab_S6zezNpx-14">
          <mxGeometry relative="1" as="geometry">
            <mxPoint x="541" y="315" as="sourcePoint" />
            <mxPoint x="377" y="421" as="targetPoint" />
          </mxGeometry>
        </mxCell>
        <mxCell id="mt36raoS_XpQdLN_D7HC-4" value="" style="endArrow=none;html=1;rounded=0;entryX=1;entryY=0;entryDx=0;entryDy=0;" edge="1" parent="1" source="mt36raoS_XpQdLN_D7HC-5" target="pwSW1z1B1ab_S6zezNpx-14">
          <mxGeometry relative="1" as="geometry">
            <mxPoint x="611" y="278" as="sourcePoint" />
            <mxPoint x="569" y="294" as="targetPoint" />
          </mxGeometry>
        </mxCell>
        <mxCell id="mt36raoS_XpQdLN_D7HC-5" value="descricao" style="ellipse;whiteSpace=wrap;html=1;align=center;fillColor=#d5e8d4;strokeColor=#82b366;rotation=-15;" vertex="1" parent="1">
          <mxGeometry x="618" y="248" width="74" height="34" as="geometry" />
        </mxCell>
      </root>
    </mxGraphModel>
  </diagram>
</mxfile>
